<svg width="19" height="18" viewBox="0 0 19 18" fill="none" xmlns="http://www.w3.org/2000/svg">
<g clip-path="url(#clip0_20894_400870)">
<path d="M14.75 8.99633C14.7464 8.60147 14.5874 8.22395 14.3075 7.94558L11.09 4.71825C10.9495 4.57846 10.7594 4.5 10.5612 4.5C10.3631 4.5 10.173 4.57846 10.0325 4.71825C9.9622 4.78802 9.90641 4.87103 9.86833 4.9625C9.83026 5.05396 9.81065 5.15206 9.81065 5.25114C9.81065 5.35022 9.83026 5.44832 9.86833 5.53978C9.90641 5.63124 9.9622 5.71425 10.0325 5.78402L12.5 8.24579H5C4.80109 8.24579 4.61032 8.32487 4.46967 8.46562C4.32902 8.60638 4.25 8.79728 4.25 8.99633C4.25 9.19539 4.32902 9.38629 4.46967 9.52705C4.61032 9.6678 4.80109 9.74687 5 9.74687H12.5L10.0325 12.2162C9.89127 12.3565 9.81154 12.5472 9.81083 12.7464C9.81013 12.9455 9.88852 13.1368 10.0287 13.2782C10.169 13.4195 10.3596 13.4993 10.5586 13.5C10.7576 13.5007 10.9488 13.4223 11.09 13.2819L14.3075 10.0546C14.5892 9.77438 14.7483 9.3938 14.75 8.99633V8.99633Z" fill="#696A6C"/>
</g>
<defs>
<clipPath id="clip0_20894_400870">
<rect width="10.5" height="9" fill="white" transform="translate(4.25 4.5)"/>
</clipPath>
</defs>
</svg>
